<svg id="visual" viewBox="0 0 1920 1080" width="1920" height="1080" xmlns="http://www.w3.org/2000/svg" xmlns:xlink="http://www.w3.org/1999/xlink" version="1.1"><rect x="0" y="0" width="1920" height="1080" fill="#001220"></rect><defs><linearGradient id="grad1_0" x1="43.8%" y1="0%" x2="100%" y2="100%"><stop offset="14.444444444444446%" stop-color="#fbae3c" stop-opacity="1"></stop><stop offset="85.55555555555554%" stop-color="#fbae3c" stop-opacity="1"></stop></linearGradient></defs><defs><linearGradient id="grad1_1" x1="43.8%" y1="0%" x2="100%" y2="100%"><stop offset="14.444444444444446%" stop-color="#fbae3c" stop-opacity="1"></stop><stop offset="85.55555555555554%" stop-color="#f17c53" stop-opacity="1"></stop></linearGradient></defs><defs><linearGradient id="grad1_2" x1="43.8%" y1="0%" x2="100%" y2="100%"><stop offset="14.444444444444446%" stop-color="#cc5867" stop-opacity="1"></stop><stop offset="85.55555555555554%" stop-color="#f17c53" stop-opacity="1"></stop></linearGradient></defs><defs><linearGradient id="grad1_3" x1="43.8%" y1="0%" x2="100%" y2="100%"><stop offset="14.444444444444446%" stop-color="#cc5867" stop-opacity="1"></stop><stop offset="85.55555555555554%" stop-color="#96446e" stop-opacity="1"></stop></linearGradient></defs><defs><linearGradient id="grad1_4" x1="43.8%" y1="0%" x2="100%" y2="100%"><stop offset="14.444444444444446%" stop-color="#593762" stop-opacity="1"></stop><stop offset="85.55555555555554%" stop-color="#96446e" stop-opacity="1"></stop></linearGradient></defs><defs><linearGradient id="grad1_5" x1="43.8%" y1="0%" x2="100%" y2="100%"><stop offset="14.444444444444446%" stop-color="#593762" stop-opacity="1"></stop><stop offset="85.55555555555554%" stop-color="#232745" stop-opacity="1"></stop></linearGradient></defs><defs><linearGradient id="grad1_6" x1="43.8%" y1="0%" x2="100%" y2="100%"><stop offset="14.444444444444446%" stop-color="#001220" stop-opacity="1"></stop><stop offset="85.55555555555554%" stop-color="#232745" stop-opacity="1"></stop></linearGradient></defs><defs><linearGradient id="grad2_0" x1="0%" y1="0%" x2="56.3%" y2="100%"><stop offset="14.444444444444446%" stop-color="#fbae3c" stop-opacity="1"></stop><stop offset="85.55555555555554%" stop-color="#fbae3c" stop-opacity="1"></stop></linearGradient></defs><defs><linearGradient id="grad2_1" x1="0%" y1="0%" x2="56.3%" y2="100%"><stop offset="14.444444444444446%" stop-color="#f17c53" stop-opacity="1"></stop><stop offset="85.55555555555554%" stop-color="#fbae3c" stop-opacity="1"></stop></linearGradient></defs><defs><linearGradient id="grad2_2" x1="0%" y1="0%" x2="56.3%" y2="100%"><stop offset="14.444444444444446%" stop-color="#f17c53" stop-opacity="1"></stop><stop offset="85.55555555555554%" stop-color="#cc5867" stop-opacity="1"></stop></linearGradient></defs><defs><linearGradient id="grad2_3" x1="0%" y1="0%" x2="56.3%" y2="100%"><stop offset="14.444444444444446%" stop-color="#96446e" stop-opacity="1"></stop><stop offset="85.55555555555554%" stop-color="#cc5867" stop-opacity="1"></stop></linearGradient></defs><defs><linearGradient id="grad2_4" x1="0%" y1="0%" x2="56.3%" y2="100%"><stop offset="14.444444444444446%" stop-color="#96446e" stop-opacity="1"></stop><stop offset="85.55555555555554%" stop-color="#593762" stop-opacity="1"></stop></linearGradient></defs><defs><linearGradient id="grad2_5" x1="0%" y1="0%" x2="56.3%" y2="100%"><stop offset="14.444444444444446%" stop-color="#232745" stop-opacity="1"></stop><stop offset="85.55555555555554%" stop-color="#593762" stop-opacity="1"></stop></linearGradient></defs><defs><linearGradient id="grad2_6" x1="0%" y1="0%" x2="56.3%" y2="100%"><stop offset="14.444444444444446%" stop-color="#232745" stop-opacity="1"></stop><stop offset="85.55555555555554%" stop-color="#001220" stop-opacity="1"></stop></linearGradient></defs><g transform="translate(1920, 0)"><path d="M0 972C-91 938.5 -181.9 904.9 -287.7 885.4C-393.5 866 -514 860.5 -571.3 786.4C-628.6 712.2 -622.6 569.2 -653.7 474.9C-684.8 380.6 -753 334.9 -812.2 263.9C-871.4 192.9 -921.7 96.4 -972 0L0 0Z" fill="#0f1d33"></path><path d="M0 833.1C-78 804.4 -155.9 775.6 -246.6 758.9C-337.3 742.2 -440.6 737.6 -489.7 674C-538.8 610.4 -533.7 487.9 -560.3 407.1C-586.9 326.2 -645.4 287.1 -696.2 226.2C-746.9 165.3 -790 82.7 -833.1 0L0 0Z" fill="#3d3056"></path><path d="M0 694.3C-65 670.3 -129.9 646.4 -205.5 632.5C-281 618.5 -367.2 614.7 -408.1 561.7C-449 508.7 -444.7 406.6 -466.9 339.2C-489.1 271.9 -537.8 239.2 -580.1 188.5C-622.5 137.8 -658.4 68.9 -694.3 0L0 0Z" fill="#773d6b"></path><path d="M0 555.4C-52 536.3 -104 517.1 -164.4 506C-224.8 494.8 -293.7 491.7 -326.5 449.4C-359.2 407 -355.8 325.3 -373.5 271.4C-391.3 217.5 -430.3 191.4 -464.1 150.8C-498 110.2 -526.7 55.1 -555.4 0L0 0Z" fill="#b34c6d"></path><path d="M0 416.6C-39 402.2 -78 387.8 -123.3 379.5C-168.6 371.1 -220.3 368.8 -244.9 337C-269.4 305.2 -266.8 244 -280.2 203.5C-293.5 163.1 -322.7 143.5 -348.1 113.1C-373.5 82.7 -395 41.3 -416.6 0L0 0Z" fill="#e1685e"></path><path d="M0 277.7C-26 268.1 -52 258.5 -82.2 253C-112.4 247.4 -146.9 245.9 -163.2 224.7C-179.6 203.5 -177.9 162.6 -186.8 135.7C-195.6 108.7 -215.1 95.7 -232.1 75.4C-249 55.1 -263.3 27.6 -277.7 0L0 0Z" fill="#f99447"></path><path d="M0 138.9C-13 134.1 -26 129.3 -41.1 126.5C-56.2 123.7 -73.4 122.9 -81.6 112.3C-89.8 101.7 -88.9 81.3 -93.4 67.8C-97.8 54.4 -107.6 47.8 -116 37.7C-124.5 27.6 -131.7 13.8 -138.9 0L0 0Z" fill="#fbae3c"></path></g><g transform="translate(0, 1080)"><path d="M0 -972C92.6 -935.4 185.3 -898.8 284.3 -875C383.3 -851.1 488.7 -840 571.3 -786.4C654 -732.7 713.9 -636.4 745.9 -541.9C777.9 -447.5 782 -354.8 815.1 -264.8C848.1 -174.8 910 -87.4 972 0L0 0Z" fill="#0f1d33"></path><path d="M0 -833.1C79.4 -801.8 158.8 -770.4 243.7 -750C328.5 -729.5 418.9 -720 489.7 -674C560.6 -628 611.9 -545.5 639.4 -464.5C666.8 -383.6 670.3 -304.2 698.6 -227C726.9 -149.8 780 -74.9 833.1 0L0 0Z" fill="#3d3056"></path><path d="M0 -694.3C66.2 -668.1 132.3 -642 203.1 -625C273.8 -608 349.1 -600 408.1 -561.7C467.1 -523.3 509.9 -454.6 532.8 -387.1C555.7 -319.6 558.6 -253.5 582.2 -189.2C605.8 -124.9 650 -62.4 694.3 0L0 0Z" fill="#773d6b"></path><path d="M0 -555.4C52.9 -534.5 105.9 -513.6 162.5 -500C219 -486.4 279.2 -480 326.5 -449.4C373.7 -418.7 407.9 -363.7 426.2 -309.7C444.5 -255.7 446.9 -202.8 465.7 -151.3C484.6 -99.9 520 -49.9 555.4 0L0 0Z" fill="#b34c6d"></path><path d="M0 -416.6C39.7 -400.9 79.4 -385.2 121.8 -375C164.3 -364.8 209.4 -360 244.9 -337C280.3 -314 306 -272.7 319.7 -232.3C333.4 -191.8 335.2 -152.1 349.3 -113.5C363.5 -74.9 390 -37.5 416.6 0L0 0Z" fill="#e1685e"></path><path d="M0 -277.7C26.5 -267.3 52.9 -256.8 81.2 -250C109.5 -243.2 139.6 -240 163.2 -224.7C186.9 -209.3 204 -181.8 213.1 -154.8C222.3 -127.9 223.4 -101.4 232.9 -75.7C242.3 -49.9 260 -25 277.7 0L0 0Z" fill="#f99447"></path><path d="M0 -138.9C13.2 -133.6 26.5 -128.4 40.6 -125C54.8 -121.6 69.8 -120 81.6 -112.3C93.4 -104.7 102 -90.9 106.6 -77.4C111.1 -63.9 111.7 -50.7 116.4 -37.8C121.2 -25 130 -12.5 138.9 0L0 0Z" fill="#fbae3c"></path></g></svg>